<svg xmlns="http://www.w3.org/2000/svg" viewBox="0 0 512 512"><defs><style>.cls-1{fill:#9b19ba;}.cls-2{fill:#81169b;}.cls-3{fill:#68137c;}.cls-4{font-size:185px;fill:#fff;font-family:MyriadPro-Regular, Myriad Pro;letter-spacing:0em;}.cls-5{letter-spacing:0em;}</style></defs><g id="Capa_4" data-name="Capa 4"><path class="cls-1" d="M382.65,0H136.5A38.33,38.33,0,0,0,98.17,38.33V473.67A38.33,38.33,0,0,0,136.5,512H473.67A38.33,38.33,0,0,0,512,473.67V123.54Z"/></g><g id="Capa_2" data-name="Capa 2"><polygon class="cls-2" points="398.68 107.79 512 179.17 512 123.33 398.68 107.79"/><path class="cls-2" d="M99,420l143.33,92H477a35,35,0,0,0,35-35V305l-95.13-57.13Z"/></g><g id="Capa_3" data-name="Capa 3"><path class="cls-3" d="M512,123.33H437.33A55.83,55.83,0,0,1,381.5,67.5V0Z"/><rect class="cls-3" y="246.67" width="444.83" height="180" rx="37.42"/></g><g id="Capa_5" data-name="Capa 5"><text class="cls-4" transform="translate(37.33 400.83)">R<tspan class="cls-5" x="100.45" y="0">AR</tspan></text></g></svg>